<svg width="14" height="10" viewBox="0 0 14 10" fill="none" xmlns="http://www.w3.org/2000/svg">
<path d="M9.57987 0.896484C10.6687 0.896484 11.7128 1.329 12.4827 2.09889C13.2526 2.86877 13.6851 3.91296 13.6851 5.00175V9.79122H10.9483V5.00175C10.9483 4.63882 10.8041 4.29076 10.5475 4.03413C10.2909 3.7775 9.9428 3.63333 9.57987 3.63333C9.21694 3.63333 8.86888 3.7775 8.61225 4.03413C8.35562 4.29076 8.21145 4.63882 8.21145 5.00175V9.79122H5.47461V5.00175C5.47461 3.91296 5.90713 2.86877 6.67701 2.09889C7.4469 1.329 8.49109 0.896484 9.57987 0.896484Z" fill="white"/>
<path d="M2.73684 1.58008H0V9.7906H2.73684V1.58008Z" fill="white"/>
</svg>
